<svg xmlns="http://www.w3.org/2000/svg">

<symbol viewBox="0 0 12.905257 15.833916" id="angle">
<path fill="#242424" fill-opacity=".5" d="M8.833 10.592a.833.833 0 0 1 0-1.184l3.825-3.816a.833.833 0 1 0-1.175-1.184L7.658 8.233a2.5 2.5 0 0 0 0 3.534l3.825 3.825a.833.833 0 0 0 1.175-1.184l-3.825-3.816Z"/>
</symbol>

<symbol viewBox="0 0 14 14" id="arrow">
<path stroke="#242424" stroke-linecap="round" stroke-linejoin="round" stroke-width="1.3" d="M7.5 14 14 7.5m0 0L7.5 1M14 7.5H1"/>
</symbol>

<symbol viewBox="0 0 28 24" id="burger-menu">
<path stroke="#242424" stroke-linecap="round" stroke-linejoin="round" stroke-width="2" d="M28 13.333H4M28 8H4M28 18.667H4M28 24H4"/>
</symbol>

<symbol viewBox="0 0 8.750667 8.750667" id="criss-cross">
<path stroke="#242424" stroke-linecap="round" stroke-linejoin="round" stroke-width="1.5" d="m8.75 1.25-7.5 7.5m0-7.5 7.5 7.5"/>
</symbol>

<symbol viewBox="0 0 7.92 19.670666" id="facebook">
<path fill="#F4F4F4" d="M7.08.06h.84v3.15H6.87c-.42 0-.84 0-1.05.21-.21.21-.21.42-.21.91v1.12h2.31v2.66H5.61v11.55H2.04V8.04H.15V5.38h1.89v-.91c0-1.54.21-2.66.63-3.15C3.3.41 4.56-.01 6.45-.01c.21.07.42.07.63.07Z"/>
</symbol>

<symbol viewBox="0 0 15.999999 11.998668" id="fluent_food">
<path fill="#242424" d="M2.6 1.714H1.4c-.333 0-.6.287-.6.643v2.786H.2c-.11 0-.2.096-.2.214v1.286c0 .118.09.214.2.214h.6v2.786c0 .356.267.643.6.643h1.2c.333 0 .6-.287.6-.643V2.357c0-.356-.268-.643-.6-.643Zm13.2 3.429h-.6V2.357c0-.356-.268-.643-.6-.643h-1.2c-.332 0-.6.287-.6.643v7.286c0 .356.268.643.6.643h1.2c.332 0 .6-.287.6-.643V6.857h.6c.11 0 .2-.096.2-.214V5.357c0-.118-.09-.214-.2-.214ZM11.4 0h-1.2c-.332 0-.6.287-.6.643v4.5H6.4v-4.5C6.4.287 6.132 0 5.8 0H4.6c-.332 0-.6.287-.6.643v10.714c0 .356.268.643.6.643h1.2c.333 0 .6-.287.6-.643v-4.5h3.2v4.5c0 .356.268.643.6.643h1.2c.332 0 .6-.287.6-.643V.643C12 .287 11.732 0 11.4 0Z"/>
</symbol>

<symbol viewBox="0 0 32 32" id="fluent-food-border">
<circle cx="16" cy="16" r="16" fill="#242424"/>
<path fill="#F4F4F4" d="M10.6 11.714H9.4c-.332 0-.6.287-.6.643v2.786h-.6c-.11 0-.2.096-.2.214v1.286c0 .118.09.214.2.214h.6v2.786c0 .356.268.643.6.643h1.2c.332 0 .6-.287.6-.643v-7.286c0-.356-.268-.643-.6-.643Zm13.2 3.429h-.6v-2.786c0-.356-.267-.643-.6-.643h-1.2c-.332 0-.6.287-.6.643v7.286c0 .356.267.643.6.643h1.2c.332 0 .6-.287.6-.643v-2.786h.6c.11 0 .2-.096.2-.214v-1.286c0-.118-.09-.214-.2-.214ZM19.4 10h-1.2c-.332 0-.6.287-.6.643v4.5h-3.2v-4.5c0-.356-.268-.643-.6-.643h-1.2c-.332 0-.6.287-.6.643v10.714c0 .356.268.643.6.643h1.2c.332 0 .6-.287.6-.643v-4.5h3.2v4.5c0 .356.267.643.6.643h1.2c.333 0 .6-.287.6-.643V10.643c0-.356-.267-.643-.6-.643Z"/>
</symbol>

<symbol viewBox="0 0 18.709244 16.692" id="heart">
<path stroke="#242424" stroke-linecap="round" stroke-linejoin="round" stroke-width="1.5" d="M17.367 2.842a4.583 4.583 0 0 0-6.483 0L10 3.725l-.883-.883a4.584 4.584 0 0 0-6.483 6.483l.883.883L10 16.692l6.484-6.484.883-.883a4.584 4.584 0 0 0 0-6.483Z"/>
</symbol>

<symbol viewBox="0 0 25.198668 25.201332" id="instagram">
<g fill="#F4F4F4" opacity=".8"><path d="M25.128 9.412a8.098 8.098 0 0 0-.521-2.752 5.73 5.73 0 0 0-3.276-3.27 8.23 8.23 0 0 0-2.719-.522C17.416 2.815 17.036 2.8 14 2.8c-3.038 0-3.427 0-4.615.068-.93.02-1.849.195-2.718.522A5.726 5.726 0 0 0 3.39 6.66a8.127 8.127 0 0 0-.522 2.713c-.053 1.196-.07 1.575-.07 4.607 0 3.033 0 3.42.07 4.607.02.93.195 1.846.522 2.716a5.73 5.73 0 0 0 3.276 3.269 8.2 8.2 0 0 0 2.718.559c1.198.053 1.577.07 4.615.07 3.037 0 3.427 0 4.615-.07a8.208 8.208 0 0 0 2.719-.52 5.736 5.736 0 0 0 3.275-3.27c.327-.87.502-1.786.521-2.716.054-1.195.07-1.574.07-4.608-.003-3.032-.003-3.417-.072-4.605ZM13.99 19.715a5.744 5.744 0 0 1-5.75-5.741 5.745 5.745 0 0 1 5.75-5.741c3.175 0 5.75 2.57 5.75 5.741a5.746 5.746 0 0 1-5.75 5.74Zm5.98-10.356a1.338 1.338 0 1 1 0-2.677 1.339 1.339 0 1 1 0 2.677Z"/><path d="M13.993 17.479a3.503 3.503 0 1 0 0-7.007 3.503 3.503 0 0 0 0 7.007Z"/></g>
</symbol>

<symbol viewBox="0 0 18.914667 16.32" id="inverted-commas">
<path fill="#F4F4F4" d="M4.15 9.101c1.16-.459 2.09-.339 2.79.361.7.7.908 1.816.623 3.347-.218 1.138-.7 2.013-1.443 2.625-.722.59-1.565.886-2.527.886-1.313 0-2.22-.503-2.723-1.51-.504-1.027-.602-2.405-.296-4.134.175-.94.46-1.892.853-2.854.394-.963.92-1.947 1.575-2.953.657-1.007 1.51-1.882 2.56-2.625A8.418 8.418 0 0 1 9.04.8l-.328 3.478c-1.072.219-2.024.776-2.855 1.673-.831.875-1.4 1.925-1.706 3.15Zm9.877 0c1.16-.459 2.09-.339 2.79.361.7.7.907 1.816.623 3.347-.219 1.138-.7 2.013-1.444 2.625-.722.59-1.564.886-2.527.886-1.312 0-2.22-.503-2.723-1.51-.503-1.027-.601-2.405-.295-4.134.175-.94.46-1.892.853-2.854.394-.963.919-1.947 1.575-2.953.656-1.007 1.51-1.882 2.56-2.625A8.418 8.418 0 0 1 18.915.8l-.328 3.478c-1.072.219-2.023.776-2.854 1.673-.832.875-1.4 1.925-1.707 3.15Z"/>
</symbol>

<symbol viewBox="0 0 131.528 14.000001" id="logo">
<path fill="#242424" d="M4.98 8.28 0 0h2.98l3.34 5.74h.04L9.7 0h2.98L7.7 8.28V14H4.98V8.28ZM12.67 11.7V2.3l2.3-2.3h7.2l2.3 2.3v9.4l-2.3 2.3h-7.2l-2.3-2.3Zm8.06-.02 1.02-1.02V3.34l-1.02-1.02h-4.32l-1.02 1.02v7.32l1.02 1.02h4.32ZM26.374 11.6V0h2.72v10.66l1.02 1.02h3.92l1.02-1.02V0h2.72v11.6l-2.4 2.4h-6.6l-2.4-2.4ZM50.878 9.36V14h-2.72V9.98l-1.2-1.34h-4.36V14h-2.72V0h8.78l2.14 2.16V6.4l-1.36 1.38 1.44 1.58Zm-8.28-2.96h4.82l.7-.7V2.98l-.7-.7h-4.82V6.4ZM57.823 0h10.12v2.3h-7.4v3.54h6.82V8.1h-6.82v3.6h7.4V14h-10.12V0ZM69.452 0h2.44l6.24 9.5h.04V0h2.62v14h-2.44l-6.24-9.48h-.04V14h-2.62V0ZM82.898 0h10.12v2.3h-7.4v3.54h6.82V8.1h-6.82v3.6h7.4V14h-10.12V0ZM105.527 9.36V14h-2.72V9.98l-1.2-1.34h-4.36V14h-2.72V0h8.78l2.14 2.16V6.4l-1.36 1.38 1.44 1.58Zm-8.28-2.96h4.82l.7-.7V2.98l-.7-.7h-4.82V6.4ZM107.323 11.7V2.3l2.3-2.3h6.96l2.26 2.26V4.4h-2.72V3.26l-.94-.94h-4.12l-1.02 1.02v7.32l1.02 1.02h4.16l.98-.98V8.52h-3V6.2h5.64v5.5l-2.3 2.3h-6.92l-2.3-2.3ZM123.828 8.28 118.848 0h2.98l3.34 5.74h.04l3.34-5.74h2.98l-4.98 8.28V14h-2.72V8.28Z"/>
</symbol>

<symbol viewBox="0 0 59.744 59.489334" id="many-rays-star">
<path fill="#242424" fill-rule="evenodd" d="m26.727 25.323.681.698-8.373-23.995 9.594 22.476.383.898.033-.975L29.872 0l.827 24.424.033.976.383-.898 9.594-22.476-8.052 23.073-.321.922.681-.698L50.083 7.83 34.24 26.436l-.633.744 23.12-10.552-21.495 11.627-.859.464.974-.057 24.397-1.43-25.212 3.2 24.195 7.778-23.718-5.889-.948-.235.759.614 18.992 15.379L33.823 34.02l-.798-.561.485.846 12.155 21.202-13.56-20.331-.542-.812 3.822 25.125-5.513-24.809-5.512 24.81 3.675-24.161.146-.965-.54.812-13.562 20.33 12.155-21.2.485-.847-.798.56-19.99 14.06L24.925 32.7l.759-.614-.947.235L1.017 38.21l23.266-7.48.929-.298L0 27.232l25.37 1.487-.857-.464L3.017 16.628l23.12 10.552L9.661 7.83l17.066 17.493Zm1.744 1.06-1.212.75-.859 1.138-.39 1.371.132 1.42.635 1.275 1.053.96 1.33.515h1.425l1.329-.514 1.053-.96.635-1.277.132-1.419-.39-1.37-.86-1.138-1.21-.75-1.402-.262-1.401.262Z" clip-rule="evenodd"/>
</symbol>

<symbol viewBox="0 0 17.79524 20.00139" id="running-stick-figure">
<path fill="#242424" d="M17.53 5.907a.741.741 0 0 0-1.043-.093l-2.05 1.723-.944-2.337a.726.726 0 0 0-.143-.227 2.007 2.007 0 0 0-.989-1.01c-.2-.091-.407-.14-.614-.164-.045-.024-.087-.055-.139-.071l-3.61-1.006a.743.743 0 0 0-.572.078.722.722 0 0 0-.45.42L5.617 6.715a.742.742 0 0 0 .423.958.742.742 0 0 0 .957-.423l1.148-2.952 1.644.457c-.04.065-.083.126-.116.195L7.566 9.52c-.03.067-.047.135-.069.204l-2.561 4.294-4.287 1.434a1.095 1.095 0 0 0 1.3 1.762l4.387-1.51c.135-.098.232-.226.306-.363.055-.059.118-.105.16-.178l1.527-2.56 2.71 2.31-2.9 3.268a1.093 1.093 0 1 0 1.64 1.45l3.619-4.077c.112-.126.18-.27.225-.422.027-.083.027-.168.033-.254 0-.043.017-.082.013-.122a1.072 1.072 0 0 0-.375-.796l-2.495-2.127c.18-.171.333-.375.443-.614l1.616-3.5.518 1.38a.698.698 0 0 0 .15.343.712.712 0 0 0 .283.198c.011.005.024.006.037.01a.722.722 0 0 0 .206.05.704.704 0 0 0 .253-.028h.003c.023-.006.046-.002.069-.012a.732.732 0 0 0 .291-.212l2.944-2.498c.313-.264.18-.73-.083-1.042ZM13.806 4.126a2.063 2.063 0 1 0 0-4.126 2.063 2.063 0 0 0 0 4.126Z"/>
</symbol>

<symbol viewBox="0 0 32 32" id="running-stick-figure-boder">
<circle cx="16" cy="16" r="16" fill="#F4F4F4" fill-opacity=".2"/>
<path fill="#F4F4F4" d="M24.73 11.907a.77.77 0 0 0-1.067-.093l-2.1 1.723-.965-2.337a.722.722 0 0 0-.146-.227 2.03 2.03 0 0 0-1.012-1.01 2.12 2.12 0 0 0-.628-.164c-.047-.023-.09-.055-.142-.071l-3.695-1.006a.775.775 0 0 0-.586.078.732.732 0 0 0-.46.42l-1.391 3.495c-.15.38.042.809.432.958a.765.765 0 0 0 .98-.423l1.175-2.951 1.683.457c-.041.065-.086.125-.119.195l-2.157 4.568c-.031.067-.048.135-.07.204l-2.621 4.295-4.387 1.434a1.081 1.081 0 0 0-.235 1.531c.369.486 1.07.59 1.566.23l4.489-1.51c.137-.098.237-.225.313-.363.056-.058.12-.105.164-.178l1.563-2.56 2.774 2.31-2.969 3.269a1.076 1.076 0 0 0 .096 1.543c.462.402 1.17.36 1.582-.093l3.704-4.078c.115-.125.184-.27.23-.422.028-.082.028-.168.035-.253 0-.044.016-.083.013-.123a1.063 1.063 0 0 0-.385-.796l-2.552-2.127a2.01 2.01 0 0 0 .453-.614l1.654-3.5.53 1.38a.69.69 0 0 0 .153.343.73.73 0 0 0 .29.198c.011.006.024.007.038.01a.753.753 0 0 0 .21.05.734.734 0 0 0 .26-.027l.003-.002c.023-.005.047 0 .07-.01a.749.749 0 0 0 .298-.213l3.013-2.498c.32-.263.185-.729-.085-1.042ZM20.92 10.126c1.165 0 2.11-.923 2.11-2.063 0-1.14-.945-2.063-2.11-2.063-1.167 0-2.112.924-2.112 2.063 0 1.14.945 2.063 2.111 2.063Z"/>
</symbol>

<symbol viewBox="0 0 15.750667 15.750667" id="search">
<path stroke="#242424" stroke-linecap="round" stroke-linejoin="round" stroke-width="1.5" d="M8.25 14.25a6 6 0 1 0 0-12 6 6 0 0 0 0 12ZM15.75 15.75l-3.263-3.262"/>
</symbol>

<symbol viewBox="0 0 13.482819 12.66829" id="star">
<path fill="#EEA10C" d="M6.049.927c.3-.921 1.603-.921 1.902 0l.845 2.6a1 1 0 0 0 .951.692h2.735c.969 0 1.371 1.24.588 1.809l-2.213 1.607a1 1 0 0 0-.363 1.118l.845 2.601c.3.921-.755 1.688-1.539 1.118l-2.212-1.607a1 1 0 0 0-1.176 0L4.2 12.472c-.784.57-1.838-.197-1.539-1.118l.845-2.6a1 1 0 0 0-.363-1.119L.93 6.028c-.783-.57-.38-1.81.588-1.81h2.735a1 1 0 0 0 .95-.69l.846-2.6Z"/>
</symbol>

<symbol viewBox="0 0 16.5 18.333334" id="trash">
<path stroke="#242424" stroke-linecap="round" stroke-linejoin="round" stroke-width="1.5" d="M12.333 5v-.667c0-.933 0-1.4-.181-1.756a1.667 1.667 0 0 0-.729-.729c-.356-.181-.823-.181-1.756-.181H8.333c-.933 0-1.4 0-1.756.181-.314.16-.569.415-.729.729-.181.356-.181.823-.181 1.756V5m1.666 4.583v4.167m3.334-4.167v4.167M1.5 5h15m-1.667 0v9.333c0 1.4 0 2.1-.272 2.635a2.5 2.5 0 0 1-1.093 1.093c-.534.272-1.235.272-2.635.272H7.167c-1.4 0-2.1 0-2.635-.272a2.5 2.5 0 0 1-1.093-1.093c-.272-.535-.272-1.235-.272-2.635V5"/>
</symbol>

<symbol viewBox="0 0 25.249334 17.539999" id="youtube">
<path fill="#F4F4F4" fill-rule="evenodd" d="M20.21.25C19.02.18 16.57.11 12.86.11h-.49C8.8.11 6.42.18 5.23.32 3.62.46 2.5.88 1.87 1.44c-.56.49-.98 1.4-1.12 2.59C.68 4.8.61 6.41.61 8.86v.35c0 2.31.07 3.92.21 4.69.21 1.12.56 1.96 1.26 2.45.7.56 1.89.91 3.57 1.05 1.19.07 3.64.14 7.35.14h.49c3.57 0 5.95-.07 7.14-.21 1.61-.14 2.73-.56 3.36-1.12.56-.49.98-1.4 1.12-2.59.07-.77.14-2.38.14-4.83v-.35c0-2.31-.07-3.92-.21-4.69-.21-1.12-.56-1.96-1.26-2.45-.7-.56-1.89-.91-3.57-1.05Zm-2.73 8.61-7.7 4.62V4.24l7.7 4.62Z" clip-rule="evenodd"/>
</symbol>

</svg>