<svg aria-hidden="true" style="position: absolute; width: 0; height: 0; overflow: hidden;" version="1.1" xmlns="http://www.w3.org/2000/svg" xmlns:xlink="http://www.w3.org/1999/xlink">
<defs>
  <symbol id="trash" viewBox="0 0 18 20">
    <path d="M12.3333 4.99996V4.33329C12.3333 3.39987 12.3333 2.93316 12.1517 2.57664C11.9919 2.26304 11.7369 2.00807 11.4233 1.84828C11.0668 1.66663 10.6001 1.66663 9.66667 1.66663H8.33333C7.39991 1.66663 6.9332 1.66663 6.57668 1.84828C6.26308 2.00807 6.00811 2.26304 5.84832 2.57664C5.66667 2.93316 5.66667 3.39987 5.66667 4.33329V4.99996M7.33333 9.58329V13.75M10.6667 9.58329V13.75M1.5 4.99996H16.5M14.8333 4.99996V14.3333C14.8333 15.7334 14.8333 16.4335 14.5608 16.9683C14.3212 17.4387 13.9387 17.8211 13.4683 18.0608C12.9335 18.3333 12.2335 18.3333 10.8333 18.3333H7.16667C5.76654 18.3333 5.06647 18.3333 4.53169 18.0608C4.06129 17.8211 3.67883 17.4387 3.43915 16.9683C3.16667 16.4335 3.16667 15.7334 3.16667 14.3333V4.99996" stroke="#242424" stroke-width="1.5" stroke-linecap="round" stroke-linejoin="round"/>
  </symbol>

  <symbol id="star" viewBox="0 0 14 13">
    <path d="M6.04894 0.927052C6.3483 0.0057416 7.6517 0.00574088 7.95106 0.927052L8.79611 3.52786C8.92999 3.93989 9.31394 4.21885 9.74717 4.21885H12.4818C13.4505 4.21885 13.8533 5.45846 13.0696 6.02786L10.8572 7.63525C10.5067 7.8899 10.3601 8.34127 10.494 8.75329L11.339 11.3541C11.6384 12.2754 10.5839 13.0415 9.80017 12.4721L7.58779 10.8647C7.2373 10.6101 6.7627 10.6101 6.41222 10.8647L4.19983 12.4721C3.41612 13.0415 2.36164 12.2754 2.66099 11.3541L3.50604 8.75329C3.63992 8.34127 3.49326 7.8899 3.14277 7.63525L0.930391 6.02787C0.146677 5.45846 0.549452 4.21885 1.51818 4.21885H4.25283C4.68606 4.21885 5.07001 3.93989 5.20389 3.52786L6.04894 0.927052Z" fill="#EEA10C"/>
  </symbol>

  <symbol id="arrow" viewBox="0 0 15 15">
    <path d="M7.5 14L14 7.5M14 7.5L7.5 1M14 7.5H1" stroke="#242424" stroke-width="1.3" stroke-linecap="round" stroke-linejoin="round"/>
  </symbol>

  <symbol id="angle" viewBox="0 0 7 12">
    <path d="M2.83338 6.59169C2.75527 6.51422 2.69328 6.42205 2.65097 6.3205C2.60866 6.21895 2.58688 6.11003 2.58688 6.00002C2.58688 5.89001 2.60866 5.78109 2.65097 5.67954C2.69328 5.57799 2.75527 5.48582 2.83338 5.40835L6.65838 1.59168C6.73649 1.51421 6.79848 1.42204 6.84079 1.32049C6.8831 1.21894 6.90488 1.11002 6.90488 1.00001C6.90488 0.890001 6.8831 0.781079 6.84079 0.67953C6.79848 0.57798 6.73649 0.485812 6.65838 0.408343C6.50224 0.253134 6.29103 0.166016 6.07088 0.166016C5.85073 0.166016 5.63952 0.253134 5.48338 0.408343L1.65838 4.23335C1.19021 4.7021 0.927246 5.33752 0.927246 6.00002C0.927246 6.66252 1.19021 7.29794 1.65838 7.76669L5.48338 11.5917C5.6386 11.7457 5.8481 11.8324 6.06671 11.8334C6.17639 11.834 6.2851 11.813 6.38664 11.7715C6.48817 11.73 6.58051 11.6689 6.65838 11.5917C6.73649 11.5142 6.79848 11.4221 6.84079 11.3205C6.8831 11.219 6.90488 11.11 6.90488 11C6.90488 10.89 6.8831 10.7811 6.84079 10.6795C6.79848 10.578 6.73649 10.4858 6.65838 10.4084L2.83338 6.59169Z" fill="#242424" fill-opacity="0.5"/>
  </symbol>

<symbol id="running-stick-figure" viewBox="0 0 20 20">
    <path d="M18.5293 5.90673C18.2672 5.59374 17.8004 5.55259 17.4874 5.81359L15.4362 7.53667L14.4929 5.19953C14.4593 5.1118 14.4084 5.03816 14.3499 4.97318C14.1572 4.5443 13.8225 4.17608 13.3611 3.96272C13.1608 3.87175 12.9539 3.82302 12.7471 3.79919C12.7016 3.77536 12.6604 3.74396 12.6084 3.72771L8.99876 2.72159C8.79624 2.66636 8.59264 2.7021 8.42585 2.79957C8.22766 2.86672 8.05763 3.01076 7.9764 3.21978L6.61722 6.71466C6.46993 7.0948 6.65837 7.52367 7.03959 7.67313C7.41865 7.82042 7.8486 7.63089 7.99698 7.24967L9.14497 4.29846L10.789 4.75549C10.7489 4.82047 10.7056 4.88112 10.6731 4.95043L8.56556 9.51858C8.53523 9.58573 8.51899 9.65396 8.49733 9.72327L5.936 14.0174L1.64944 15.4513C1.16425 15.8141 1.06136 16.4975 1.41984 16.9827C1.78048 17.469 2.46603 17.5719 2.95014 17.2134L7.33634 15.7026C7.47063 15.6051 7.5681 15.4773 7.64175 15.3398C7.69698 15.2813 7.7598 15.2347 7.80204 15.1622L9.32908 12.6019L12.0399 14.912L9.13956 18.1805C8.73992 18.6311 8.78 19.3253 9.23269 19.7238C9.68431 20.1256 10.3764 20.0834 10.7782 19.6307L14.3976 15.5531C14.5102 15.4275 14.5774 15.2824 14.6229 15.1308C14.6499 15.0484 14.6499 14.9629 14.6564 14.8773C14.6564 14.834 14.6727 14.795 14.6694 14.7549C14.6597 14.456 14.5384 14.1658 14.2936 13.9589L11.7994 11.8319C11.9792 11.6608 12.1319 11.4572 12.2424 11.2178L13.8582 7.71861L14.3759 9.09729C14.3976 9.21967 14.4387 9.33988 14.5254 9.4406C14.6034 9.53374 14.703 9.59547 14.8091 9.6388C14.82 9.64421 14.833 9.64529 14.846 9.64854C14.9131 9.67237 14.9813 9.69511 15.0517 9.69836C15.1351 9.70594 15.2196 9.69511 15.3051 9.67129C15.3073 9.6702 15.3084 9.6702 15.3084 9.6702C15.3311 9.66479 15.3539 9.66912 15.3766 9.65937C15.4968 9.61389 15.5889 9.53699 15.668 9.4471L18.6116 6.94859C18.9246 6.68542 18.7924 6.21972 18.5293 5.90673Z" fill="#242424"/>
    <path d="M14.8063 4.12628C15.9457 4.12628 16.8694 3.20258 16.8694 2.06314C16.8694 0.923699 15.9457 0 14.8063 0C13.6669 0 12.7432 0.923699 12.7432 2.06314C12.7432 3.20258 13.6669 4.12628 14.8063 4.12628Z" fill="#242424"/>
</symbol>


<symbol id="fluent_food" viewBox="0 0 20 20">
    <path d="M4.6 5.71429H3.4C3.0675 5.71429 2.8 6.00089 2.8 6.35714V9.14286H2.2C2.09 9.14286 2 9.23929 2 9.35714V10.6429C2 10.7607 2.09 10.8571 2.2 10.8571H2.8V13.6429C2.8 13.9991 3.0675 14.2857 3.4 14.2857H4.6C4.9325 14.2857 5.2 13.9991 5.2 13.6429V6.35714C5.2 6.00089 4.9325 5.71429 4.6 5.71429ZM17.8 9.14286H17.2V6.35714C17.2 6.00089 16.9325 5.71429 16.6 5.71429H15.4C15.0675 5.71429 14.8 6.00089 14.8 6.35714V13.6429C14.8 13.9991 15.0675 14.2857 15.4 14.2857H16.6C16.9325 14.2857 17.2 13.9991 17.2 13.6429V10.8571H17.8C17.91 10.8571 18 10.7607 18 10.6429V9.35714C18 9.23929 17.91 9.14286 17.8 9.14286ZM13.4 4H12.2C11.8675 4 11.6 4.28661 11.6 4.64286V9.14286H8.4V4.64286C8.4 4.28661 8.1325 4 7.8 4H6.6C6.2675 4 6 4.28661 6 4.64286V15.3571C6 15.7134 6.2675 16 6.6 16H7.8C8.1325 16 8.4 15.7134 8.4 15.3571V10.8571H11.6V15.3571C11.6 15.7134 11.8675 16 12.2 16H13.4C13.7325 16 14 15.7134 14 15.3571V4.64286C14 4.28661 13.7325 4 13.4 4Z" fill="#242424"/>
</symbol>

<symbol id="criss-cross" viewBox="0 0 10 10">
    <path d="M8.75 1.25L1.25 8.75M1.25 1.25L8.75 8.75" stroke="#242424" stroke-width="1.5" stroke-linecap="round" stroke-linejoin="round"/>
</symbol>

<symbol id="search" viewBox="0 0 18 18">
    <path d="M8.25 14.25C11.5637 14.25 14.25 11.5637 14.25 8.25C14.25 4.93629 11.5637 2.25 8.25 2.25C4.93629 2.25 2.25 4.93629 2.25 8.25C2.25 11.5637 4.93629 14.25 8.25 14.25Z" stroke="#242424" stroke-width="1.5" stroke-linecap="round" stroke-linejoin="round"/>
    <path d="M15.7498 15.75L12.4873 12.4875" stroke="#242424" stroke-width="1.5" stroke-linecap="round" stroke-linejoin="round"/>
</symbol>

<symbol id="heart" viewBox="0 0 20 20">
    <path d="M17.3671 3.84172C16.9415 3.41589 16.4361 3.0781 15.8799 2.84763C15.3237 2.61716 14.7275 2.49854 14.1254 2.49854C13.5234 2.49854 12.9272 2.61716 12.371 2.84763C11.8147 3.0781 11.3094 3.41589 10.8838 3.84172L10.0004 4.72506L9.11709 3.84172C8.25735 2.98198 7.09128 2.49898 5.87542 2.49898C4.65956 2.49898 3.4935 2.98198 2.63376 3.84172C1.77401 4.70147 1.29102 5.86753 1.29102 7.08339C1.29102 8.29925 1.77401 9.46531 2.63376 10.3251L3.51709 11.2084L10.0004 17.6917L16.4838 11.2084L17.3671 10.3251C17.7929 9.89943 18.1307 9.39407 18.3612 8.83785C18.5917 8.28164 18.7103 7.68546 18.7103 7.08339C18.7103 6.48132 18.5917 5.88514 18.3612 5.32893C18.1307 4.77271 17.7929 4.26735 17.3671 3.84172Z" stroke="#242424" stroke-width="1.5" stroke-linecap="round" stroke-linejoin="round"/>
</symbol>

<symbol id="inverted-commas" viewBox="0 0 24 24">
    <path d="M6.15077 13.1014C7.31014 12.642 8.23983 12.7623 8.93984 13.4623C9.63984 14.1623 9.84764 15.2779 9.56326 16.8092C9.34452 17.9467 8.86328 18.8217 8.11952 19.4342C7.39764 20.0248 6.55546 20.3201 5.59296 20.3201C4.28045 20.3201 3.37265 19.817 2.86952 18.8107C2.3664 17.7826 2.26796 16.4045 2.57421 14.6764C2.7492 13.7357 3.03358 12.7842 3.42732 11.8217C3.82109 10.8592 4.34609 9.87481 5.00232 8.86856C5.65858 7.86232 6.51171 6.9873 7.56171 6.24356C8.61171 5.4998 9.77108 5.01856 11.0398 4.7998L10.7117 8.27792C9.63984 8.49668 8.68827 9.05449 7.85703 9.95137C7.02576 10.8264 6.45701 11.8764 6.15077 13.1014ZM16.0273 13.1014C17.1867 12.642 18.1164 12.7623 18.8164 13.4623C19.5164 14.1623 19.7242 15.2779 19.4398 16.8092C19.2211 17.9467 18.7398 18.8217 17.9961 19.4342C17.2742 20.0248 16.432 20.3201 15.4695 20.3201C14.157 20.3201 13.2492 19.817 12.7461 18.8107C12.243 17.7826 12.1445 16.4045 12.4508 14.6764C12.6258 13.7357 12.9102 12.7842 13.3039 11.8217C13.6976 10.8592 14.2226 9.87481 14.8789 8.86856C15.5352 7.86232 16.3883 6.9873 17.4383 6.24356C18.4883 5.4998 19.6477 5.01856 20.9164 4.7998L20.5883 8.27792C19.5164 8.49668 18.5648 9.05449 17.7336 9.95137C16.9023 10.8264 16.3336 11.8764 16.0273 13.1014Z" fill="#F4F4F4"/>
</symbol>
<symbol id="menu-mobile-close" viewBox="0 0 32 32">
<path stroke-linejoin="round" stroke-linecap="round" stroke-miterlimit="4" stroke-width="2" d="M24 8l-16 16M8 8l16 16"></path>
</symbol>

<symbol id="facebook" viewBox="0 0 28 28">
    <path d="M17.0804 4.06011C17.2904 4.06011 17.5004 4.06011 17.9204 4.06011V7.21011C17.7104 7.21011 17.2904 7.21011 16.8704 7.21011C16.4504 7.21011 16.0304 7.21011 15.8204 7.42011C15.6104 7.63011 15.6104 7.84011 15.6104 8.33011C15.6104 8.75011 15.6104 9.03011 15.6104 9.45011H17.9204V12.1101H15.6104V23.6601H12.0404V12.0401H10.1504V9.38011H12.0404V8.47011C12.0404 6.93011 12.2504 5.81011 12.6704 5.32011C13.3004 4.41011 14.5604 3.99011 16.4504 3.99011C16.6604 4.06011 16.8704 4.06011 17.0804 4.06011Z" fill="#F4F4F4"/>
</symbol>

<symbol id="instagram" viewBox="0 0 28 28">
    <path d="M25.1277 9.41152C25.114 8.47146 24.9398 7.53885 24.6065 6.65964C24.0231 5.15827 22.8352 3.97109 21.3313 3.38991C20.4618 3.06332 19.5426 2.88822 18.6122 2.86835C17.4155 2.81495 17.0361 2.80005 13.9986 2.80005C10.961 2.80005 10.5716 2.80005 9.38372 2.86835C8.45454 2.88822 7.5353 3.06332 6.66582 3.38991C5.16196 3.97109 3.97279 5.15827 3.39065 6.65964C3.06351 7.52767 2.88688 8.44538 2.86946 9.37302C2.81598 10.5689 2.7998 10.9477 2.7998 13.9802C2.7998 17.0127 2.7998 17.4002 2.86946 18.5873C2.88812 19.5162 3.06351 20.4327 3.39065 21.3032C3.97404 22.8033 5.16195 23.9905 6.66706 24.5717C7.53281 24.9095 8.45205 25.1007 9.38497 25.1305C10.5828 25.1839 10.9622 25.2001 13.9998 25.2001C17.0374 25.2001 17.4267 25.2001 18.6146 25.1305C19.5438 25.1119 20.4631 24.9368 21.3338 24.6102C22.8377 24.0278 24.0256 22.8406 24.609 21.3405C24.9361 20.4712 25.1115 19.5547 25.1301 18.6246C25.1836 17.43 25.1998 17.0512 25.1998 14.0174C25.1973 10.9849 25.1973 10.5999 25.1277 9.41152ZM13.9911 19.7149C10.8142 19.7149 8.24059 17.1456 8.24059 13.974C8.24059 10.8024 10.8142 8.23302 13.9911 8.23302C17.1655 8.23302 19.7416 10.8024 19.7416 13.974C19.7416 17.1456 17.1655 19.7149 13.9911 19.7149ZM19.9705 9.35936C19.2279 9.35936 18.6296 8.7608 18.6296 8.02067C18.6296 7.28055 19.2279 6.68199 19.9705 6.68199C20.7106 6.68199 21.3102 7.28055 21.3102 8.02067C21.3102 8.7608 20.7106 9.35936 19.9705 9.35936Z" fill="#F4F4F4"/>
    <path d="M13.9928 17.4789C15.9277 17.4789 17.4963 15.9104 17.4963 13.9754C17.4963 12.0405 15.9277 10.4719 13.9928 10.4719C12.0578 10.4719 10.4893 12.0405 10.4893 13.9754C10.4893 15.9104 12.0578 17.4789 13.9928 17.4789Z" fill="#F4F4F4"/>
</symbol>

<symbol id="youtube" viewBox="0 0 28 28">
    <path fill-rule="evenodd" clip-rule="evenodd" d="M21.2103 5.24986C20.0203 5.17986 17.5704 5.10986 13.8604 5.10986H13.3703C9.80034 5.10986 7.42038 5.17986 6.23038 5.31986C4.62038 5.45986 3.50034 5.87986 2.87034 6.43986C2.31034 6.92986 1.89036 7.83986 1.75036 9.02986C1.68036 9.79986 1.61035 11.4099 1.61035 13.8599V14.2099C1.61035 16.5199 1.68034 18.1299 1.82034 18.8999C2.03034 20.0199 2.38038 20.8599 3.08038 21.3499C3.78038 21.9099 4.97036 22.2599 6.65036 22.3999C7.84036 22.4699 10.2904 22.5399 14.0004 22.5399H14.4904C18.0604 22.5399 20.4404 22.4699 21.6304 22.3299C23.2404 22.1899 24.3604 21.7699 24.9904 21.2099C25.5504 20.7199 25.9703 19.8099 26.1103 18.6199C26.1803 17.8499 26.2504 16.2399 26.2504 13.7899V13.4399C26.2504 11.1299 26.1804 9.51986 26.0404 8.74986C25.8304 7.62986 25.4804 6.78986 24.7804 6.29986C24.0804 5.73986 22.8903 5.38986 21.2103 5.24986ZM18.4804 13.8599L10.7804 18.4799V9.23986L18.4804 13.8599Z" fill="#F4F4F4"/>
</symbol>

<symbol id="many-rays-star" viewBox="0 0 60 60">
    <path fill-rule="evenodd" clip-rule="evenodd" d="M26.7271 25.3227L27.4083 26.021L19.0348 2.02583L28.6289 24.502L29.0121 25.3997L29.0451 24.4247L29.872 0L30.6989 24.4242L30.732 25.3997L31.115 24.5024L40.7093 2.02583L32.6573 25.0994L32.3357 26.021L33.017 25.3227L50.0829 7.82973L34.2395 26.4365L33.6067 27.1797L56.7269 16.6278L35.2319 28.2549L34.3734 28.7193L35.3473 28.6622L59.744 27.2319L34.5321 30.4318L58.7268 38.2099L35.0087 32.3213L34.0614 32.0861L34.8196 32.7L53.8125 48.079L33.8233 34.0201L33.0249 33.4586L33.5101 34.3049L45.665 55.5065L32.1043 35.176L31.5626 34.364L35.3845 59.4892L29.872 34.68L24.3595 59.4892L28.0346 35.329L28.1814 34.364L27.6401 35.1756L14.0791 55.5065L26.2337 34.3054L26.7191 33.4586L25.9212 34.0198L5.93151 48.079L24.9241 32.7003L25.6827 32.0861L24.7358 32.3211L1.01726 38.2099L24.2827 30.7305L25.212 30.4318L0 27.2319L25.3707 28.7193L24.5126 28.2551L3.01713 16.6278L26.1373 27.1797L9.66116 7.82973L26.7271 25.3227ZM28.471 26.3835L27.2592 27.1338L26.4002 28.2712L26.0102 29.6421L26.1417 31.0614L26.777 32.3373L27.8303 33.2975L29.1594 33.8124H30.5847L31.9137 33.2975L32.9671 32.3373L33.6024 31.0614L33.7339 29.6421L33.3438 28.2712L32.4849 27.1338L31.2731 26.3835L29.872 26.1216L28.471 26.3835Z" fill="#242424"/>
</symbol>

<symbol id="fluent-food-border" viewBox="0 0 32 32">
    <circle cx="16" cy="16" r="16" fill="#242424"/>
    <path d="M10.6 11.7143H9.4C9.0675 11.7143 8.8 12.0009 8.8 12.3571V15.1429H8.2C8.09 15.1429 8 15.2393 8 15.3571V16.6429C8 16.7607 8.09 16.8571 8.2 16.8571H8.8V19.6429C8.8 19.9991 9.0675 20.2857 9.4 20.2857H10.6C10.9325 20.2857 11.2 19.9991 11.2 19.6429V12.3571C11.2 12.0009 10.9325 11.7143 10.6 11.7143ZM23.8 15.1429H23.2V12.3571C23.2 12.0009 22.9325 11.7143 22.6 11.7143H21.4C21.0675 11.7143 20.8 12.0009 20.8 12.3571V19.6429C20.8 19.9991 21.0675 20.2857 21.4 20.2857H22.6C22.9325 20.2857 23.2 19.9991 23.2 19.6429V16.8571H23.8C23.91 16.8571 24 16.7607 24 16.6429V15.3571C24 15.2393 23.91 15.1429 23.8 15.1429ZM19.4 10H18.2C17.8675 10 17.6 10.2866 17.6 10.6429V15.1429H14.4V10.6429C14.4 10.2866 14.1325 10 13.8 10H12.6C12.2675 10 12 10.2866 12 10.6429V21.3571C12 21.7134 12.2675 22 12.6 22H13.8C14.1325 22 14.4 21.7134 14.4 21.3571V16.8571H17.6V21.3571C17.6 21.7134 17.8675 22 18.2 22H19.4C19.7325 22 20 21.7134 20 21.3571V10.6429C20 10.2866 19.7325 10 19.4 10Z" fill="#F4F4F4"/>
</symbol>

<symbol id="running-stick-figure-boder" viewBox="0 0 24 24">
    <circle cx="12" cy="12" r="12" fill="#242424"/>
    <path d="M18.8234 8.72544C18.6138 8.47504 18.2403 8.44212 17.9899 8.65092L16.349 10.0294L15.5943 8.15967C15.5675 8.08949 15.5267 8.03057 15.4799 7.97859C15.3257 7.63549 15.058 7.34091 14.6889 7.17023C14.5286 7.09745 14.3631 7.05846 14.1977 7.0394C14.1613 7.02034 14.1283 6.99521 14.0868 6.98222L11.199 6.17732C11.037 6.13314 10.8741 6.16173 10.7407 6.2397C10.5821 6.29342 10.4461 6.40865 10.3811 6.57587L9.29378 9.37178C9.17594 9.67589 9.3267 10.019 9.63168 10.1386C9.93492 10.2564 10.2789 10.1048 10.3976 9.79978L11.316 7.43882L12.6312 7.80444C12.5991 7.85643 12.5645 7.90495 12.5385 7.9604L10.8524 11.6149C10.8282 11.6686 10.8152 11.7232 10.7979 11.7787L8.7488 15.214L5.31955 16.3611C4.9314 16.6514 4.84909 17.1981 5.13587 17.5862C5.42439 17.9752 5.97282 18.0575 6.36011 17.7708L9.86907 16.5621C9.97651 16.4841 10.0545 16.3819 10.1134 16.2719C10.1576 16.2251 10.2078 16.1878 10.2416 16.1298L11.4633 14.0816L13.6319 15.9296L11.3116 18.5445C10.9919 18.9049 11.024 19.4603 11.3862 19.7791C11.7474 20.1005 12.3011 20.0667 12.6225 19.7046L15.5181 16.4426C15.6082 16.342 15.6619 16.2259 15.6983 16.1047C15.7199 16.0388 15.7199 15.9704 15.7251 15.9019C15.7251 15.8673 15.7381 15.8361 15.7355 15.804C15.7277 15.5649 15.6307 15.3327 15.4349 15.1672L13.4395 13.4656C13.5834 13.3287 13.7055 13.1658 13.7939 12.9743L15.0866 10.1749L15.5007 11.2779C15.5181 11.3758 15.551 11.472 15.6203 11.5525C15.6827 11.627 15.7624 11.6764 15.8473 11.7111C15.856 11.7154 15.8664 11.7163 15.8768 11.7189C15.9305 11.7379 15.9851 11.7561 16.0414 11.7587C16.1081 11.7648 16.1757 11.7561 16.2441 11.7371C16.2459 11.7362 16.2467 11.7362 16.2467 11.7362C16.2649 11.7319 16.2831 11.7353 16.3013 11.7275C16.3975 11.6912 16.4711 11.6296 16.5344 11.5577L18.8893 9.55892C19.1397 9.34838 19.034 8.97583 18.8234 8.72544Z" fill="#F4F4F4"/>
    <path d="M15.8448 7.30102C16.7564 7.30102 17.4954 6.56206 17.4954 5.65051C17.4954 4.73896 16.7564 4 15.8448 4C14.9333 4 14.1943 4.73896 14.1943 5.65051C14.1943 6.56206 14.9333 7.30102 15.8448 7.30102Z" fill="#F4F4F4"/>
</symbol>

<symbol id="logo" viewBox="0 0 132 24">
    <path d="M4.98 13.28L0 5H2.98L6.32 10.74H6.36L9.7 5H12.68L7.7 13.28V19H4.98V13.28Z" fill="#242424"/>
    <path d="M12.6703 16.7V7.3L14.9703 5H22.1703L24.4703 7.3V16.7L22.1703 19H14.9703L12.6703 16.7ZM20.7303 16.68L21.7503 15.66V8.34L20.7303 7.32H16.4103L15.3903 8.34V15.66L16.4103 16.68H20.7303Z" fill="#242424"/>
    <path d="M26.3742 16.6V5H29.0942V15.66L30.1142 16.68H34.0342L35.0542 15.66V5H37.7742V16.6L35.3742 19H28.7742L26.3742 16.6Z" fill="#242424"/>
    <path d="M50.8781 14.36V19H48.1581V14.98L46.9581 13.64H42.5981V19H39.8781V5H48.6581L50.7981 7.16V11.4L49.4381 12.78L50.8781 14.36ZM42.5981 11.4H47.4181L48.1181 10.7V7.98L47.4181 7.28H42.5981V11.4Z" fill="#242424"/>
    <path d="M57.8234 5H67.9434V7.3H60.5434V10.84H67.3634V13.1H60.5434V16.7H67.9434V19H57.8234V5Z" fill="#242424"/>
    <path d="M69.4523 5H71.8923L78.1323 14.5H78.1723V5H80.7923V19H78.3523L72.1123 9.52H72.0723V19H69.4523V5Z" fill="#242424"/>
    <path d="M82.8977 5H93.0177V7.3H85.6177V10.84H92.4377V13.1H85.6177V16.7H93.0177V19H82.8977V5Z" fill="#242424"/>
    <path d="M105.527 14.36V19H102.807V14.98L101.607 13.64H97.2466V19H94.5266V5H103.307L105.447 7.16V11.4L104.087 12.78L105.527 14.36ZM97.2466 11.4H102.067L102.767 10.7V7.98L102.067 7.28H97.2466V11.4Z" fill="#242424"/>
    <path d="M107.323 16.7V7.3L109.623 5H116.583L118.843 7.26V9.4H116.123V8.26L115.183 7.32H111.063L110.043 8.34V15.66L111.063 16.68H115.223L116.203 15.7V13.52H113.203V11.2H118.843V16.7L116.543 19H109.623L107.323 16.7Z" fill="#242424"/>
    <path d="M123.828 13.28L118.848 5H121.828L125.168 10.74H125.208L128.548 5H131.528L126.548 13.28V19H123.828V13.28Z" fill="#242424"/>
</symbol>

</defs>
</svg>
